HIERARCHY
ROOT base
{
	OFFSET 0.0 0.0 0.0
	CHANNELS 6 Xposition Yposition Zposition Zrotation Yrotation Xrotation
	JOINT root
	{
		OFFSET 0 0 0
		CHANNELS 6 Xposition Yposition Zposition Zrotation Yrotation Xrotation
		JOINT chest
		{
			OFFSET 0 4.72302 0
			CHANNELS 3 Zrotation Yrotation Xrotation
			JOINT neck
			{
				OFFSET 0 4.47788 0
				CHANNELS 3 Zrotation Yrotation Xrotation
				End Site
				{
					OFFSET 0.0 0.0 0.0
				}
			}
			JOINT right_shoulder
			{
				OFFSET -0.481 4.87 3.6622
				CHANNELS 3 Zrotation Yrotation Xrotation
				JOINT right_elbow
				{
					OFFSET 0 -5.49576 0
					CHANNELS 3 Zrotation Yrotation Xrotation
					JOINT right_wrist
					{
						OFFSET 0 -5.17894 0
						CHANNELS 3 Zrotation Yrotation Xrotation
						End Site
						{
							OFFSET 0.0 0.0 0.0
						}
					}
				}
			}
			JOINT left_shoulder
			{
				OFFSET -0.481 4.87 -3.6622
				CHANNELS 3 Zrotation Yrotation Xrotation
				JOINT left_elbow
				{
					OFFSET 0 -5.49576 0
					CHANNELS 3 Zrotation Yrotation Xrotation
					JOINT left_wrist
					{
						OFFSET 0 -5.17894 0
						CHANNELS 3 Zrotation Yrotation Xrotation
						End Site
						{
							OFFSET 0.0 0.0 0.0
						}
					}
				}
			}
		}
		JOINT right_hip
		{
			OFFSET 0 0 1.69774
			CHANNELS 3 Zrotation Yrotation Xrotation
			JOINT right_knee
			{
				OFFSET 0 -8.43092 0
				CHANNELS 3 Zrotation Yrotation Xrotation
				JOINT right_ankle
				{
					OFFSET 0 -8.1974 0
					CHANNELS 3 Zrotation Yrotation Xrotation
					End Site
					{
						OFFSET 0.0 0.0 0.0
					}
				}
			}
		}
		JOINT left_hip
		{
			OFFSET 0 0 -1.69774
			CHANNELS 3 Zrotation Yrotation Xrotation
			JOINT left_knee
			{
				OFFSET 0 -8.43092 0
				CHANNELS 3 Zrotation Yrotation Xrotation
				JOINT left_ankle
				{
					OFFSET 0 -8.1974 0
					CHANNELS 3 Zrotation Yrotation Xrotation
					End Site
					{
						OFFSET 0.0 0.0 0.0
					}
				}
			}
		}
	}
	JOINT red_arrow
	{
		OFFSET 0 0 0
		CHANNELS 3 Zrotation Yrotation Xrotation
		End Site
		{
			OFFSET 0.0 0.0 0.0
		}
	}
	JOINT blue_arrow
	{
		OFFSET 0 0 0
		CHANNELS 3 Zrotation Yrotation Xrotation
		End Site
		{
			OFFSET 0.0 0.0 0.0
		}
	}
}
MOTION
Frames: 14
Frame Time: 0.0333333333333333
0 18.08466 0 0 0 0 0 0 0 0 -90 0 0 0 0 0 0 0 0 0 -90 0 0 0 0 0 0 0 0 90 0 0 0 0 0 0 0 0 0 0 0 0 0 0 0 0 0 0 0 0 0 0 0 0 0 0 0 0 0 0
0.841891747713089 0 0.079425694514066 0 0.821981724144934 0 0 16.9709581375122 0 -5.51304135457561 -3.10601043111672E-18 0.369063656752677 -0.252628421688928 -5.95731678263501 1.15977233804868 -0.193773550603763 0.21030855914998 -0.482855876473755 -14.2189211251561 11.9653227055834 -8.37732216067024 9.76330121095342 0 0 0 0 0 7.63378473387846 -16.9833965285881 19.2154034707347 32.887487212111 0 0 0 0 0 26.883574800238 -6.0206480495077 2.75541406093811 -14.2107831578755 0 0 -4.97500233031525 2.28299015751464 -5.06120539445147 -7.27261515290329 9.14672254871633 -0.459386248625585 -29.4050264713208 0 0 7.81534248601323 -8.57006127943107 11.0259095366148 0 0 0 0 0 0
1.57690702825785 0 0.213271659612656 0 0.813555684513975 0 0 16.9944624066353 0 -5.74123829721884 -0.159291694228499 -1.82089066249431 0.309466561483727 -5.87671594015563 1.67246685035713 -0.702974783682745 0.396291231415998 -1.28285246132807 -12.595276529758 13.8017933076427 -8.14435915935695 10.4094558894568 0 0 0 0 0 6.09212061747757 -15.4852835090643 17.8375885223039 31.9511058429427 0 0 0 0 0 25.4242991941905 -4.64686023397356 5.51726043758398 -15.9017305293746 0 0 -3.91505883735653 -0.0965893826617884 -4.93499864561417 -3.40493214672646 9.11520774189498 3.40966692323473 -36.9057899536671 0 0 0.759784259840013 -9.38214415225096 11.2707709292971 0 0 0 0 0 0
2.31429231911898 0 0.244732961803675 0 0.831209216532424 0 0 17.0830514073372 0 -5.50005428013514 0.333872919100785 -3.05322508219341 1.38581168538271 -6.67239441198202 1.91648116522155 -0.840547887546287 -0.421681570885891 -2.19058370141028 -11.2649297517019 15.4315995588382 -8.22962694621047 10.9034382221206 0 0 0 0 0 3.96350624834595 -13.1663667583105 16.2764998862468 29.9302099618869 0 0 0 0 0 22.9759131644456 -4.40061399560006 6.75754232264436 -16.8025266129671 0 0 -0.795659085807228 -1.07052936831981 -4.76185619993718 0.70151811401447 8.32001121114251 5.86898196962747 -45.8950531467396 0 0 -4.98203283824077 -9.72264110046207 10.4857199578182 0 0 0 0 0 0
3.00938742011786 0 0.220552851632237 0 0.889007526655558 0 0 17.1560587882996 0 -5.25866472959741 1.09354691473713 -3.87248030174388 2.43314027489467 -6.95047651647755 2.18597257842323 -0.53257303194919 -1.05993005125113 -2.54392163919391 -9.75679556888737 16.933046613677 -8.4857352557771 11.3158826102464 0 0 0 0 0 2.14051171354232 -10.5445989275536 14.6874087116441 27.8368867548722 0 0 0 0 0 20.5078051334828 -4.17361012787936 7.40987368403639 -17.3195941312519 0 0 1.99175500192609 -2.04058112395981 -4.49453489216685 5.60064125989281 6.86479719563869 7.83552522540028 -56.3277094812597 0 0 -9.56148463434602 -9.95131129238344 8.82603839337157 0 0 0 0 0 0
3.66402840018272 0 0.155807040631771 0 0.994946354095991 0 0 17.2207325100899 0 -5.01884979592868 2.00512675421003 -4.35836719398695 3.16025972431732 -6.99201283437696 2.37362503311887 -0.396395827426296 -1.66754226148785 -2.84378893669017 -7.99037626989053 18.2925272150326 -9.01149049755787 11.8974023548604 0 0 0 0 0 0.377429740146426 -7.75276963986111 13.4213483082987 25.4996387095761 0 0 0 0 0 17.8028525727159 -4.46377216233701 7.57510776963488 -17.2028013115393 0 0 4.32523904184816 -2.48708641392916 -4.21541541158669 10.6639034232337 4.81179782162123 9.34287987468687 -66.6763476587995 0 0 -14.0053058108514 -9.38847924994446 7.27689177872974 0 0 0 0 0 0
4.28711718767881 0 0.0576294569298625 0 1.14947182253937 0 0 17.2830127000809 0 -4.78523500550625 2.92576801658842 -4.53687271351834 3.46967648326738 -6.82363597970039 2.34576384910734 -0.327006777550722 -2.22345930425664 -2.99431869045485 -6.14590190241425 19.2501853497178 -9.65182099750148 12.9295182167565 0 0 0 0 0 -1.1936164713525 -5.30010553031569 12.4746616212731 22.8984140981428 0 0 0 0 0 14.8278098772606 -4.69096053478853 7.42351206090786 -16.2850817267307 0 0 6.13695270397389 -2.91327892913799 -3.86156988400934 15.7368836803655 2.57166481938971 10.3088764124679 -75.7323861962927 0 0 -18.5816824624975 -8.21331809131167 5.54818043272319 0 0 0 0 0 0
4.89425360560417 0 -0.0705906100571155 0 1.33570878750405 0 0 17.3427533745766 0 -4.5313430089648 3.5274698827839 -4.34770189654277 3.45394593284669 -6.44154007192641 1.85765889932767 -0.367085067461743 -2.74034481389061 -3.16498474869722 -4.26530335780002 19.9666009115609 -10.4249245215924 14.5748655378093 0 0 0 0 0 -2.7533472937613 -3.18606166591105 11.8141891294721 20.2835513064843 0 0 0 0 0 11.5861859625602 -4.68160695230513 6.96287906371063 -14.6385382687995 0 0 7.48096382752655 -3.19905179848122 -3.4430822466638 20.6557632732969 0.871707589029632 10.6850001882394 -82.1706181305951 0 0 -20.6783286334658 -6.29474549034727 4.61758515971961 0 0 0 0 0 0
5.49638240337372 0 -0.228694182634354 0 1.53114605867098 0 0 17.3952008128166 0 -4.2703431240701 3.70302802482533 -3.77789619121568 3.22135880078825 -5.86290646484788 0.889567738455064 -0.408812103712734 -3.20466027903649 -3.48012383805214 -2.20107961568129 20.5986306768878 -11.3612443372414 16.870669702769 0 0 0 0 0 -4.47690157321386 -1.17253573695981 11.4348172535128 17.8474601786144 0 0 0 0 0 8.13300960421529 -4.61709415863579 6.11888229050825 -12.4302698082427 0 0 8.46632781659157 -3.10219579483136 -2.93767911895148 25.4008923681459 0.0253277217306475 10.4809297837648 -84.9930093899953 0 0 -19.0588145853196 -3.84416946405828 4.44008774395092 0 0 0 0 0 0
6.09698736667633 0 -0.41131751537323 0 1.71219930982677 0 0 17.4259102344513 0 -4.09441175339993 3.43125301089813 -2.97238055756986 2.96522950969015 -4.97298168081556 -0.241393311431085 -0.487284224096846 -3.55627907154452 -3.97782860424602 0.137715737748634 21.3083527170196 -12.521474299732 19.5391084982771 0 0 0 0 0 -6.4572122798281 0.961473769514623 11.2568548738938 15.7516473676473 0 0 0 0 0 4.78978500036614 -4.80117040339396 4.95517375253057 -10.1919391238277 0 0 9.37446191267136 -2.39203211830664 -2.3041735434211 30.0243617847055 0.261148467561736 10.2362803950755 -83.5409180026397 0 0 -14.425548523135 -1.34816719919035 4.91696135421425 0 0 0 0 0 0
6.70061314851046 0 -0.596777857095003 0 1.8722314168081 0 0 17.4217441678047 0 -3.984032743333 3.03327598857106 -2.32245006312448 2.56416051801089 -3.86928066660944 -1.03399228984462 -0.644962103327647 -3.67254477820518 -4.46460518891968 2.84632755043232 22.4410092232441 -13.8373004134628 22.4500651130976 0 0 0 0 0 -8.65297892257883 3.42252400260552 11.395223874507 13.9352089305275 0 0 0 0 0 1.51982291446253 -5.39907080723878 3.90093488011002 -8.00628029697089 0 0 10.3040514890771 -1.28072758990752 -1.56916246485407 34.5712959826893 1.46059030138028 10.4831758832467 -77.7285499623639 0 0 -7.89706240908434 1.28840967504994 5.99511895544529 0 0 0 0 0 0
7.31152404844761 0 -0.777661064267158 0 2.01545152305432 0 0 17.3765942573547 0 -4.03298289472058 2.71445372525794 -1.97750210656446 2.15230156389777 -2.67376842186803 -1.51777053062037 -0.888572982071265 -3.5907178924081 -4.79391867734014 5.81629826045326 24.1820133567072 -15.3890515365084 25.467133839316 0 0 0 0 0 -11.1064261265493 6.21562708171281 11.7223862466709 12.2482341678044 0 0 0 0 0 -1.56256606975559 -6.32077071301505 3.14913909019584 -5.98365082852632 0 0 11.3571638711091 -0.047438251328618 -0.748728548472115 38.750813470457 3.457291088458 11.0022548771149 -67.8174946841902 0 0 -0.939095865768309 3.47860744614757 6.57103458734202 0 0 0 0 0 0
7.92111369222403 0 -0.957273411750794 0 2.14725206135864 0 0 17.2897098064423 0 -4.45128014663192 2.49666632284092 -2.02599409196724 1.64315008049174 -1.47367076454146 -1.59341546686589 -1.09525326572738 -3.35870791355416 -4.97248793267687 8.75220880193348 26.3104398124823 -17.3079058229851 28.4719918948458 0 0 0 0 0 -13.5575440231099 8.79768285732807 12.2018742945535 10.639950014509 0 0 0 0 0 -4.27461978346187 -7.64339927691394 2.79112947516207 -4.07580909238615 0 0 12.4915842995623 1.3992327210269 0.205883429538522 41.9303349461003 6.05524360174702 11.3676269312858 -54.197141252701 0 0 4.11866644827629 4.9563520237276 6.72550205018259 0 0 0 0 0 0
8.53537711203098 0 -1.13006274700165 0 2.27382322256018 0 0 17.1575396895409 0 -5.24697285261065 2.39478691350558 -2.49411669386203 0.804516120085027 -0.656394054240222 -1.56157439414974 -1.26273095524936 -2.97512760045653 -4.85709224535419 11.2119222615278 28.4834811614259 -19.4127732372699 31.2712049072976 0 0 0 0 0 -15.6633513883563 10.6042204980889 12.7338260715767 9.21975475680381 0 0 0 0 0 -6.43554949479169 -9.04386278170491 2.87469307967843 -2.72477248823506 0 0 13.9645651212761 2.75962182493084 1.24244624527329 43.4466956530887 8.5684415685443 11.1916006685061 -38.8699747740443 0 0 5.54018806438175 5.45877617363957 6.20444530635033 0 0 0 0 0 0
